With: Kelen Coleman, Tim Rock and Billy Drago

Tim en Allie zoeken onderdak bij een afgelegen gebouw in de woestijn, nadat ze gestrand en verdwaald zijn. Een vreemde priester laat ze binnen, op voorwaarde dat ze de volgende ochtend weer weggaan en dat ze niet overal rondneuzen. Wanneer er buiten geschreeuw en gehuil te horen is, sluipt Allie naar buiten om op onderzoek uit te gaan. Ze doet de vreselijke ontdekking dat zij en Tim te maken hebben met een bizarre sekte. De sekte aanbiedt een entiteit die mogelijk verblijft in het lichaam van een klein jongetje.

A young couple tries to free an imprisoned child with catastrophic results. 

------------------ Dutch Friends ------------------
You can find my Friends at: http://www.Film-Test.nl 
------ They got my dutchs subs ---- and more ------

General:

Complete name                    : Children of the Corn\Genesis.avi
Format                           : AVI
Format/Info                      : Audio Video Interleave
File size                        : 1.30 GiB
Duration                         : 1h 20mn
Overall bit rate                 : 2 307 Kbps

Video:

Format                           : MPEG-4 Visual
Format profile                   : Simple@L3
Format settings, BVOP            : No
Format settings, QPel            : No
Format settings, GMC             : No warppoints
Format settings, Matrix          : Default (H.263)
Codec ID                         : XVID
Codec ID/Hint                    : XviD
Duration                         : 1h 20mn
Bit rate                         : 1 848 Kbps
Width                            : 720 pixels
Height                           : 304 pixels
Display aspect ratio             : 2.35:1
Frame rate                       : 23.976 fps
Color space                      : YUV
Chroma subsampling               : 4:2:0
Bit depth                        : 8 bits
Scan type                        : Progressive
Bits/(Pixel*Frame)               : 0.352
Stream size                      : 1.04 GiB (80%)
Writing library                  : XviD 1.1.2 (UTC 2006-11-01)

Audio:

Format                           : AC-3
Format/Info                      : Audio Coding 3
Mode extension                   : CM (complete main)
Codec ID                         : 2000
Duration                         : 1h 20mn
Bit rate mode                    : Constant
Bit rate                         : 448 Kbps
Channel(s)                       : 6 channels
Channel positions                : Front: L C R, Side: L R, LFE
Sampling rate                    : 48.0 KHz
Bit depth                        : 16 bits
Stream size                      : 258 MiB (19%)
Alignment                        : Aligned on interleaves
Interleave, duration             : 32 ms (0.77 video frame)
Interleave, preload duration     : 576 ms

